<svg xmlns="http://www.w3.org/2000/svg" width="32" height="32" viewBox="0 0 32 32" fill="none">
  <defs>
    <!-- Anime sword blade glow -->
    <filter id="swordGlow" x="-30%" y="-30%" width="160%" height="160%">
      <feDropShadow dx="0" dy="0" stdDeviation="1.2" flood-color="#00f0ff" flood-opacity="0.95"/>
      <feDropShadow dx="0" dy="0" stdDeviation="2.8" flood-color="#7928ca" flood-opacity="0.6"/>
    </filter>
    <linearGradient id="bladeUpper" x1="0" y1="0" x2="1" y2="1">
      <stop offset="0%" stop-color="#ffffff"/>
      <stop offset="45%" stop-color="#a0e9ff"/>
      <stop offset="100%" stop-color="#00b4d8"/>
    </linearGradient>
    <linearGradient id="bladeLower" x1="0" y1="0" x2="1" y2="1">
      <stop offset="0%" stop-color="#e0f7ff"/>
      <stop offset="60%" stop-color="#0077b6"/>
      <stop offset="100%" stop-color="#03045e"/>
    </linearGradient>
    <linearGradient id="goldHilt" x1="0" y1="1" x2="1" y2="0">
      <stop offset="0%" stop-color="#ffbe0b"/>
      <stop offset="50%" stop-color="#fb5607"/>
      <stop offset="100%" stop-color="#ff006e"/>
    </linearGradient>
  </defs>

  <g filter="url(#swordGlow)">
    <!-- Sword Blade Upper Edge (Bevel) -->
    <polygon points="2,2 17,14 16,16" fill="url(#bladeUpper)" stroke="#00f0ff" stroke-width="0.5"/>
    
    <!-- Sword Blade Lower Edge (Bevel) -->
    <polygon points="2,2 16,16 14,17" fill="url(#bladeLower)" stroke="#0077b6" stroke-width="0.5"/>

    <!-- Sharp Center Blade Spine / Hamon Line -->
    <line x1="2" y1="2" x2="16" y2="16" stroke="#ffffff" stroke-width="1.2" stroke-linecap="round"/>

    <!-- Sword Crossguard (Quillons Winged Flanges) -->
    <polygon points="10,21 13,18 15,16 18,14 21,11 20,14 17,17 14,20" fill="url(#goldHilt)" stroke="#ffffff" stroke-width="0.6"/>
    <!-- Guard Center Diamond Gem -->
    <polygon points="16,14.5 17.5,16 16,17.5 14.5,16" fill="#00f0ff" stroke="#ffffff" stroke-width="0.5"/>

    <!-- Sword Grip / Handle (Wrapped Tsuka) -->
    <line x1="17" y1="17" x2="25" y2="25" stroke="#10002b" stroke-width="2.8" stroke-linecap="round"/>
    <line x1="17" y1="17" x2="25" y2="25" stroke="#00f0ff" stroke-width="2.2" stroke-linecap="round"/>
    <!-- Wrap Ties -->
    <line x1="19" y1="18" x2="18" y2="19" stroke="#ffffff" stroke-width="0.8"/>
    <line x1="21" y1="20" x2="20" y2="21" stroke="#ffffff" stroke-width="0.8"/>
    <line x1="23" y1="22" x2="22" y2="23" stroke="#ffffff" stroke-width="0.8"/>

    <!-- Sword Pommel (Kashira end cap) -->
    <polygon points="25,26 28,25 28,28 26,28" fill="url(#goldHilt)" stroke="#ffffff" stroke-width="0.6"/>
    <circle cx="27" cy="27" r="1.1" fill="#00f0ff"/>

    <!-- Sharp Tip Glisten -->
    <circle cx="2" cy="2" r="1.4" fill="#ffffff"/>
  </g>
</svg>
